<svg xmlns="http://www.w3.org/2000/svg" viewBox="0 0 600 500">
<defs><radialGradient id="bg" cx="50%" cy="50%" r="50%">
<stop offset="0%" stop-color="#1e293b"/><stop offset="100%" stop-color="#0f172a"/>
</radialGradient></defs>
<rect width="600" height="500" fill="url(#bg)"/>
<text x="300" y="28" text-anchor="middle" font-size="15" fill="#e2e8f0" font-weight="600">五维决策测评 · 雷达图 V2.3</text>
<polygon points="300.0,206.0 332.3,229.5 320.0,267.5 280.0,267.5 267.7,229.5" fill="none" stroke="#334155" stroke-width="0.5"/>
<polygon points="300.0,172.0 364.7,219.0 340.0,295.0 260.0,295.0 235.3,219.0" fill="none" stroke="#334155" stroke-width="0.5"/>
<polygon points="300.0,138.0 397.0,208.5 360.0,322.5 240.0,322.5 203.0,208.5" fill="none" stroke="#334155" stroke-width="0.5"/>
<polygon points="300.0,104.0 429.3,198.0 379.9,350.0 220.1,350.0 170.7,198.0" fill="none" stroke="#475569" stroke-width="0.5"/>
<polygon points="300.0,70.0 461.7,187.5 399.9,377.5 200.1,377.5 138.3,187.5" fill="none" stroke="#475569" stroke-width="1"/>
<line x1="300" y1="240" x2="300.0" y2="70.0" stroke="#475569" stroke-width="0.5"/>
<line x1="300" y1="240" x2="461.7" y2="187.5" stroke="#475569" stroke-width="0.5"/>
<line x1="300" y1="240" x2="399.9" y2="377.5" stroke="#475569" stroke-width="0.5"/>
<line x1="300" y1="240" x2="200.1" y2="377.5" stroke="#475569" stroke-width="0.5"/>
<line x1="300" y1="240" x2="138.3" y2="187.5" stroke="#475569" stroke-width="0.5"/>
<polygon points="300.0,115.2 407.7,205.0 330.0,281.3 250.0,308.8 181.3,201.4" fill="rgba(59,130,246,0.15)" stroke="#3B82F6" stroke-width="2.5" stroke-linejoin="round"/>
<circle cx="300.0" cy="115.2" r="9" fill="#3B82F6" fill-opacity="0.2"/>
<circle cx="300.0" cy="115.2" r="4.5" fill="#3B82F6" stroke="#0f172a" stroke-width="2"/>
<text x="300.0" y="103.2" text-anchor="middle" font-size="12" font-weight="bold" fill="#3B82F6">3.7</text>
<circle cx="407.7" cy="205.0" r="9" fill="#10B981" fill-opacity="0.2"/>
<circle cx="407.7" cy="205.0" r="4.5" fill="#10B981" stroke="#0f172a" stroke-width="2"/>
<text x="407.7" y="193.0" text-anchor="middle" font-size="12" font-weight="bold" fill="#10B981">3.3</text>
<circle cx="330.0" cy="281.3" r="9" fill="#F59E0B" fill-opacity="0.2"/>
<circle cx="330.0" cy="281.3" r="4.5" fill="#F59E0B" stroke="#0f172a" stroke-width="2"/>
<text x="330.0" y="269.3" text-anchor="middle" font-size="12" font-weight="bold" fill="#F59E0B">1.5</text>
<circle cx="250.0" cy="308.8" r="9" fill="#EF4444" fill-opacity="0.2"/>
<circle cx="250.0" cy="308.8" r="4.5" fill="#EF4444" stroke="#0f172a" stroke-width="2"/>
<text x="250.0" y="296.8" text-anchor="middle" font-size="12" font-weight="bold" fill="#EF4444">2.5</text>
<circle cx="181.3" cy="201.4" r="9" fill="#8B55CF" fill-opacity="0.2"/>
<circle cx="181.3" cy="201.4" r="4.5" fill="#8B55CF" stroke="#0f172a" stroke-width="2"/>
<text x="181.3" y="189.4" text-anchor="middle" font-size="12" font-weight="bold" fill="#8B55CF">3.7</text>
<text x="300.0" y="44.0" text-anchor="end" font-size="13" font-weight="bold" fill="#3B82F6">时间轴</text>
<text x="486.4" y="179.4" text-anchor="end" font-size="13" font-weight="bold" fill="#10B981">可行域</text>
<text x="415.2" y="398.6" text-anchor="start" font-size="13" font-weight="bold" fill="#F59E0B">身心流</text>
<text x="184.8" y="398.6" text-anchor="start" font-size="13" font-weight="bold" fill="#EF4444">信义观</text>
<text x="113.6" y="179.4" text-anchor="start" font-size="13" font-weight="bold" fill="#8B55CF">直觉阈</text>
<rect x="70" y="455" width="12" height="12" rx="3" fill="#3B82F6"/>
<text x="86" y="465" font-size="10" fill="#94a3b8">时间轴 3.7</text>
<rect x="168" y="455" width="12" height="12" rx="3" fill="#10B981"/>
<text x="184" y="465" font-size="10" fill="#94a3b8">可行域 3.3</text>
<rect x="266" y="455" width="12" height="12" rx="3" fill="#F59E0B"/>
<text x="282" y="465" font-size="10" fill="#94a3b8">身心流 1.5</text>
<rect x="364" y="455" width="12" height="12" rx="3" fill="#EF4444"/>
<text x="380" y="465" font-size="10" fill="#94a3b8">信义观 2.5</text>
<rect x="462" y="455" width="12" height="12" rx="3" fill="#8B55CF"/>
<text x="478" y="465" font-size="10" fill="#94a3b8">直觉阈 3.7</text>
<text x="300" y="490" text-anchor="middle" font-size="9" fill="#475569">满意解研究所 · 五维测评 V2.3 · 基于196本翻书方法论 · 2026-05-27</text>
</svg>